<svg width="217" height="228" viewBox="0 0 217 228" fill="none" xmlns="http://www.w3.org/2000/svg">
<g clip-path="url(#clip0_90:2)">
<g filter="url(#filter0_d_90:2)">
<path d="M215.673 115.262L109.481 2.17471C107.877 0.466715 105.155 0.496724 103.59 2.23966L1.99504 115.327C-0.318195 117.902 1.50924 122 4.97062 122H61.5C63.7091 122 65.5 123.791 65.5 126V224C65.5 226.209 67.2909 228 69.5 228H149.5C151.709 228 153.5 226.209 153.5 224V126C153.5 123.791 155.291 122 157.5 122H212.757C216.26 122 218.071 117.816 215.673 115.262Z" fill="#4FD1C5"/>
</g>
</g>
<defs>
<filter id="filter0_d_90:2" x="-1.03723" y="0.912842" width="223.802" height="235.087" filterUnits="userSpaceOnUse" color-interpolation-filters="sRGB">
<feFlood flood-opacity="0" result="BackgroundImageFix"/>
<feColorMatrix in="SourceAlpha" type="matrix" values="0 0 0 0 0 0 0 0 0 0 0 0 0 0 0 0 0 0 127 0" result="hardAlpha"/>
<feOffset dx="2" dy="4"/>
<feGaussianBlur stdDeviation="2"/>
<feComposite in2="hardAlpha" operator="out"/>
<feColorMatrix type="matrix" values="0 0 0 0 0 0 0 0 0 0 0 0 0 0 0 0 0 0 0.25 0"/>
<feBlend mode="normal" in2="BackgroundImageFix" result="effect1_dropShadow_90:2"/>
<feBlend mode="normal" in="SourceGraphic" in2="effect1_dropShadow_90:2" result="shape"/>
</filter>
<clipPath id="clip0_90:2">
<rect width="217" height="228" fill="white"/>
</clipPath>
</defs>
</svg>
